<svg width="72" height="11" viewBox="0 0 72 11" fill="none" xmlns="http://www.w3.org/2000/svg">
<path d="M1.464 10.12C1.224 10.12 1.032 10.056 0.888 9.928C0.744 9.8 0.672 9.624 0.672 9.4V4.456C0.672 3.528 0.936 2.8 1.464 2.272C1.992 1.744 2.72 1.48 3.648 1.48C4.096 1.48 4.516 1.592 4.908 1.816C5.308 2.032 5.652 2.344 5.94 2.752C6.22 2.336 6.556 2.02 6.948 1.804C7.348 1.588 7.78 1.48 8.244 1.48C9.172 1.48 9.9 1.744 10.428 2.272C10.956 2.8 11.22 3.528 11.22 4.456V9.4C11.22 9.616 11.144 9.792 10.992 9.928C10.848 10.056 10.656 10.12 10.416 10.12C10.176 10.12 9.984 10.056 9.84 9.928C9.696 9.8 9.624 9.624 9.624 9.4V4.456C9.624 3.848 9.512 3.412 9.288 3.148C9.064 2.876 8.696 2.74 8.184 2.74C7.72 2.74 7.36 2.888 7.104 3.184C6.856 3.48 6.732 3.904 6.732 4.456V9.4C6.732 9.624 6.66 9.8 6.516 9.928C6.372 10.056 6.18 10.12 5.94 10.12C5.7 10.12 5.508 10.056 5.364 9.928C5.228 9.8 5.16 9.624 5.16 9.4V4.456C5.16 3.92 5.032 3.5 4.776 3.196C4.52 2.892 4.164 2.74 3.708 2.74C3.196 2.74 2.828 2.876 2.604 3.148C2.38 3.412 2.268 3.848 2.268 4.456V9.4C2.268 9.616 2.192 9.792 2.04 9.928C1.896 10.056 1.704 10.12 1.464 10.12ZM17.6425 10.12C16.9545 10.12 16.3545 9.996 15.8425 9.748C15.3305 9.5 14.9345 9.152 14.6545 8.704C14.3825 8.248 14.2465 7.716 14.2465 7.108C14.2465 6.124 14.5305 5.36 15.0985 4.816C15.6745 4.272 16.4825 4 17.5225 4C18.1625 4 18.7265 4.1 19.2145 4.3C19.7105 4.5 20.0945 4.78 20.3665 5.14C20.6465 5.492 20.7865 5.896 20.7865 6.352C20.7865 6.736 20.6625 7.032 20.4145 7.24C20.1745 7.448 19.8305 7.552 19.3825 7.552H15.7705C15.7705 8 15.9265 8.34 16.2385 8.572C16.5585 8.796 17.0265 8.908 17.6425 8.908C18.2905 8.908 18.8425 8.764 19.2985 8.476C19.5545 8.316 19.7545 8.236 19.8985 8.236C20.0345 8.236 20.1665 8.3 20.2945 8.428C20.4305 8.564 20.4985 8.712 20.4985 8.872C20.4985 9.064 20.4185 9.216 20.2585 9.328C19.9225 9.584 19.5305 9.78 19.0825 9.916C18.6345 10.052 18.1545 10.12 17.6425 10.12ZM18.9025 6.448C19.0385 6.448 19.1345 6.424 19.1905 6.376C19.2465 6.32 19.2745 6.232 19.2745 6.112C19.2745 5.832 19.1145 5.612 18.7945 5.452C18.4825 5.292 18.0585 5.212 17.5225 5.212C16.9865 5.212 16.5625 5.324 16.2505 5.548C15.9465 5.772 15.7945 6.072 15.7945 6.448H18.9025ZM26.2377 10.12C25.6137 10.12 25.0577 10 24.5697 9.76C24.0897 9.512 23.7137 9.156 23.4417 8.692C23.1697 8.228 23.0337 7.684 23.0337 7.06C23.0337 6.436 23.1617 5.896 23.4177 5.44C23.6817 4.976 24.0577 4.62 24.5457 4.372C25.0337 4.124 25.6097 4 26.2737 4C26.7617 4 27.1737 4.08 27.5097 4.24C27.8457 4.392 28.1617 4.624 28.4577 4.936L28.4697 1.612C28.4697 1.388 28.5417 1.212 28.6857 1.084C28.8297 0.955999 29.0217 0.891999 29.2617 0.891999C29.5017 0.891999 29.6897 0.955999 29.8257 1.084C29.9697 1.204 30.0417 1.38 30.0417 1.612V9.4C30.0417 9.632 29.9697 9.812 29.8257 9.94C29.6897 10.06 29.5017 10.12 29.2617 10.12C29.0217 10.12 28.8297 10.056 28.6857 9.928C28.5417 9.8 28.4697 9.624 28.4697 9.4V9.16C27.9337 9.8 27.1897 10.12 26.2377 10.12ZM26.4777 8.872C27.1017 8.872 27.5897 8.712 27.9417 8.392C28.2937 8.072 28.4697 7.628 28.4697 7.06C28.4697 6.492 28.2937 6.048 27.9417 5.728C27.5897 5.408 27.1017 5.248 26.4777 5.248C25.8937 5.248 25.4377 5.408 25.1097 5.728C24.7817 6.048 24.6177 6.492 24.6177 7.06C24.6177 7.628 24.7817 8.072 25.1097 8.392C25.4377 8.712 25.8937 8.872 26.4777 8.872ZM34.0499 3.256C33.7539 3.256 33.5139 3.176 33.3299 3.016C33.1539 2.848 33.0659 2.632 33.0659 2.368C33.0659 2.104 33.1539 1.892 33.3299 1.732C33.5139 1.564 33.7539 1.48 34.0499 1.48C34.3459 1.48 34.5859 1.564 34.7699 1.732C34.9619 1.892 35.0579 2.104 35.0579 2.368C35.0579 2.632 34.9619 2.848 34.7699 3.016C34.5859 3.176 34.3459 3.256 34.0499 3.256ZM34.0619 10.12C33.8139 10.12 33.6219 10.056 33.4859 9.928C33.3499 9.8 33.2819 9.624 33.2819 9.4V4.72C33.2819 4.496 33.3499 4.32 33.4859 4.192C33.6219 4.064 33.8139 4 34.0619 4C34.3019 4 34.4939 4.064 34.6379 4.192C34.7819 4.32 34.8539 4.496 34.8539 4.72V9.4C34.8539 9.624 34.7819 9.8 34.6379 9.928C34.4939 10.056 34.3019 10.12 34.0619 10.12ZM38.9917 10.12C38.7517 10.12 38.5597 10.056 38.4157 9.928C38.2717 9.8 38.1997 9.624 38.1997 9.4V3.376C38.1997 2.816 38.3597 2.38 38.6797 2.068C39.0077 1.756 39.4597 1.6 40.0357 1.6H43.7677C44.0077 1.6 44.1917 1.656 44.3197 1.768C44.4477 1.872 44.5117 2.024 44.5117 2.224C44.5117 2.416 44.4437 2.568 44.3077 2.68C44.1797 2.784 43.9997 2.836 43.7677 2.836H40.3117C40.1517 2.836 40.0237 2.888 39.9277 2.992C39.8397 3.096 39.7957 3.24 39.7957 3.424V5.212H42.8557C43.0957 5.212 43.2797 5.268 43.4077 5.38C43.5357 5.484 43.5997 5.636 43.5997 5.836C43.5997 6.028 43.5317 6.18 43.3957 6.292C43.2677 6.396 43.0877 6.448 42.8557 6.448H39.7957V9.4C39.7957 9.616 39.7197 9.792 39.5677 9.928C39.4237 10.056 39.2317 10.12 38.9917 10.12ZM48.4376 10.12C48.1896 10.12 47.9976 10.056 47.8616 9.928C47.7256 9.8 47.6576 9.624 47.6576 9.4V1.612C47.6576 1.388 47.7256 1.212 47.8616 1.084C47.9976 0.955999 48.1896 0.891999 48.4376 0.891999C48.6776 0.891999 48.8696 0.955999 49.0136 1.084C49.1576 1.212 49.2296 1.388 49.2296 1.612V9.4C49.2296 9.624 49.1576 9.8 49.0136 9.928C48.8696 10.056 48.6776 10.12 48.4376 10.12ZM55.946 10.12C55.25 10.12 54.63 9.996 54.086 9.748C53.55 9.492 53.13 9.132 52.826 8.668C52.522 8.204 52.37 7.668 52.37 7.06C52.37 6.452 52.522 5.916 52.826 5.452C53.13 4.988 53.55 4.632 54.086 4.384C54.63 4.128 55.25 4 55.946 4C56.642 4 57.258 4.128 57.794 4.384C58.338 4.632 58.762 4.988 59.066 5.452C59.37 5.916 59.522 6.452 59.522 7.06C59.522 7.668 59.37 8.204 59.066 8.668C58.762 9.132 58.338 9.492 57.794 9.748C57.258 9.996 56.642 10.12 55.946 10.12ZM55.946 8.872C56.562 8.872 57.046 8.712 57.398 8.392C57.758 8.072 57.938 7.628 57.938 7.06C57.938 6.492 57.758 6.048 57.398 5.728C57.046 5.408 56.562 5.248 55.946 5.248C55.33 5.248 54.842 5.408 54.482 5.728C54.13 6.048 53.954 6.492 53.954 7.06C53.954 7.628 54.13 8.072 54.482 8.392C54.842 8.712 55.33 8.872 55.946 8.872ZM64.5449 10.12C63.6569 10.12 63.0929 9.592 62.8529 8.536L62.0249 4.816C62.0089 4.72 62.0009 4.656 62.0009 4.624C62.0009 4.424 62.0689 4.272 62.2049 4.168C62.3489 4.056 62.5489 4 62.8049 4C63.0609 4 63.2689 4.056 63.4289 4.168C63.5889 4.28 63.6849 4.436 63.7169 4.636L64.3769 8.62C64.4009 8.788 64.4569 8.872 64.5449 8.872C64.6409 8.872 64.7009 8.792 64.7249 8.632L65.1809 5.32C65.2449 4.896 65.4009 4.572 65.6489 4.348C65.8969 4.116 66.2169 4 66.6089 4C67.0009 4 67.3209 4.116 67.5689 4.348C67.8169 4.572 67.9729 4.896 68.0369 5.32L68.4929 8.632C68.5169 8.792 68.5769 8.872 68.6729 8.872C68.7609 8.872 68.8169 8.788 68.8409 8.62L69.5009 4.636C69.5329 4.436 69.6289 4.28 69.7889 4.168C69.9489 4.056 70.1569 4 70.4129 4C70.6689 4 70.8649 4.056 71.0009 4.168C71.1449 4.272 71.2169 4.424 71.2169 4.624C71.2169 4.656 71.2089 4.72 71.1929 4.816L70.3649 8.536C70.1249 9.592 69.5609 10.12 68.6729 10.12C68.2329 10.12 67.8929 9.984 67.6529 9.712C67.4129 9.44 67.2529 9.016 67.1729 8.44L66.7769 5.488C66.7689 5.4 66.7489 5.34 66.7169 5.308C66.6929 5.268 66.6569 5.248 66.6089 5.248C66.5609 5.248 66.5209 5.268 66.4889 5.308C66.4649 5.34 66.4489 5.4 66.4409 5.488L66.0449 8.44C65.9649 9.016 65.8049 9.44 65.5649 9.712C65.3249 9.984 64.9849 10.12 64.5449 10.12Z" fill="#EEF4FF"/>
</svg>
